<svg width="110" height="87" viewBox="0 0 110 87" fill="none" xmlns="http://www.w3.org/2000/svg">
<circle cx="55" cy="43.0261" r="37.0261" stroke="url(#paint0_linear_5_22)" stroke-width="12"/>
<circle cx="55" cy="43.0258" r="35.4477" stroke="white"/>
<rect x="0.5" y="33.4609" width="109" height="19.1307" rx="3.5" fill="url(#paint1_radial_5_22)" stroke="url(#paint2_linear_5_22)"/>
<path d="M15.3214 47.9609V38.1609H17.1974L22.9794 45.2169H22.0694V38.1609H24.3094V47.9609H22.4474L16.6514 40.9049H17.5614V47.9609H15.3214ZM31.808 47.9609V38.1609H34.076V47.9609H31.808ZM44.8018 48.1289C44.0178 48.1289 43.2664 48.0263 42.5478 47.8209C41.8291 47.6063 41.2504 47.3309 40.8118 46.9949L41.5818 45.2869C42.0018 45.5856 42.4964 45.8329 43.0658 46.0289C43.6444 46.2156 44.2278 46.3089 44.8158 46.3089C45.2638 46.3089 45.6231 46.2669 45.8938 46.1829C46.1738 46.0896 46.3791 45.9636 46.5098 45.8049C46.6404 45.6463 46.7058 45.4643 46.7058 45.2589C46.7058 44.9976 46.6031 44.7923 46.3978 44.6429C46.1924 44.4843 45.9218 44.3583 45.5858 44.2649C45.2498 44.1623 44.8764 44.0689 44.4658 43.9849C44.0644 43.8916 43.6584 43.7796 43.2478 43.6489C42.8464 43.5183 42.4778 43.3503 42.1418 43.1449C41.8058 42.9396 41.5304 42.6689 41.3158 42.3329C41.1104 41.9969 41.0078 41.5676 41.0078 41.0449C41.0078 40.4849 41.1571 39.9763 41.4558 39.5189C41.7638 39.0523 42.2211 38.6836 42.8278 38.4129C43.4438 38.1329 44.2138 37.9929 45.1378 37.9929C45.7538 37.9929 46.3604 38.0676 46.9578 38.2169C47.5551 38.3569 48.0824 38.5716 48.5398 38.8609L47.8398 40.5829C47.3824 40.3216 46.9251 40.1303 46.4678 40.0089C46.0104 39.8783 45.5624 39.8129 45.1238 39.8129C44.6851 39.8129 44.3258 39.8643 44.0458 39.9669C43.7658 40.0696 43.5651 40.2049 43.4438 40.3729C43.3224 40.5316 43.2618 40.7183 43.2618 40.9329C43.2618 41.1849 43.3644 41.3903 43.5698 41.5489C43.7751 41.6983 44.0458 41.8196 44.3818 41.9129C44.7178 42.0063 45.0864 42.0996 45.4878 42.1929C45.8984 42.2863 46.3044 42.3936 46.7058 42.5149C47.1164 42.6363 47.4898 42.7996 47.8258 43.0049C48.1618 43.2103 48.4324 43.4809 48.6378 43.8169C48.8524 44.1529 48.9598 44.5776 48.9598 45.0909C48.9598 45.6416 48.8058 46.1456 48.4978 46.6029C48.1898 47.0603 47.7278 47.4289 47.1118 47.7089C46.5051 47.9889 45.7351 48.1289 44.8018 48.1289ZM58.9095 48.1289C58.1255 48.1289 57.3742 48.0263 56.6555 47.8209C55.9368 47.6063 55.3582 47.3309 54.9195 46.9949L55.6895 45.2869C56.1095 45.5856 56.6042 45.8329 57.1735 46.0289C57.7522 46.2156 58.3355 46.3089 58.9235 46.3089C59.3715 46.3089 59.7308 46.2669 60.0015 46.1829C60.2815 46.0896 60.4868 45.9636 60.6175 45.8049C60.7482 45.6463 60.8135 45.4643 60.8135 45.2589C60.8135 44.9976 60.7108 44.7923 60.5055 44.6429C60.3002 44.4843 60.0295 44.3583 59.6935 44.2649C59.3575 44.1623 58.9842 44.0689 58.5735 43.9849C58.1722 43.8916 57.7662 43.7796 57.3555 43.6489C56.9542 43.5183 56.5855 43.3503 56.2495 43.1449C55.9135 42.9396 55.6382 42.6689 55.4235 42.3329C55.2182 41.9969 55.1155 41.5676 55.1155 41.0449C55.1155 40.4849 55.2648 39.9763 55.5635 39.5189C55.8715 39.0523 56.3288 38.6836 56.9355 38.4129C57.5515 38.1329 58.3215 37.9929 59.2455 37.9929C59.8615 37.9929 60.4682 38.0676 61.0655 38.2169C61.6628 38.3569 62.1902 38.5716 62.6475 38.8609L61.9475 40.5829C61.4902 40.3216 61.0328 40.1303 60.5755 40.0089C60.1182 39.8783 59.6702 39.8129 59.2315 39.8129C58.7928 39.8129 58.4335 39.8643 58.1535 39.9669C57.8735 40.0696 57.6728 40.2049 57.5515 40.3729C57.4302 40.5316 57.3695 40.7183 57.3695 40.9329C57.3695 41.1849 57.4722 41.3903 57.6775 41.5489C57.8828 41.6983 58.1535 41.8196 58.4895 41.9129C58.8255 42.0063 59.1942 42.0996 59.5955 42.1929C60.0062 42.2863 60.4122 42.3936 60.8135 42.5149C61.2242 42.6363 61.5975 42.7996 61.9335 43.0049C62.2695 43.2103 62.5402 43.4809 62.7455 43.8169C62.9602 44.1529 63.0675 44.5776 63.0675 45.0909C63.0675 45.6416 62.9135 46.1456 62.6055 46.6029C62.2975 47.0603 61.8355 47.4289 61.2195 47.7089C60.6128 47.9889 59.8428 48.1289 58.9095 48.1289ZM68.5092 47.9609L72.8772 38.1609H75.1172L79.4992 47.9609H77.1192L73.5352 39.3089H74.4312L70.8332 47.9609H68.5092ZM70.6932 45.8609L71.2952 44.1389H76.3352L76.9512 45.8609H70.6932ZM85.696 47.9609V38.1609H87.572L93.354 45.2169H92.444V38.1609H94.684V47.9609H92.822L87.026 40.9049H87.936V47.9609H85.696Z" fill="white"/>
<defs>
<linearGradient id="paint0_linear_5_22" x1="29.6668" y1="6" x2="80.3332" y2="80.0523" gradientUnits="userSpaceOnUse">
<stop stop-color="#ED1C24"/>
<stop offset="0.5" stop-color="#871015"/>
<stop offset="1" stop-color="#ED1C24"/>
</linearGradient>
<radialGradient id="paint1_radial_5_22" cx="0" cy="0" r="1" gradientUnits="userSpaceOnUse" gradientTransform="translate(55 43.0263) scale(82.5 109.631)">
<stop stop-color="#ED1C24"/>
<stop offset="1" stop-color="#871015"/>
</radialGradient>
<linearGradient id="paint2_linear_5_22" x1="54.929" y1="32.9609" x2="55.071" y2="53.0917" gradientUnits="userSpaceOnUse">
<stop stop-color="#B9B9B9"/>
<stop offset="1"/>
</linearGradient>
</defs>
</svg>
